<?xml version="1.0" standalone="no"?>
<!DOCTYPE svg PUBLIC "-//W3C//DTD SVG 20010904//EN"
 "http://www.w3.org/TR/2001/REC-SVG-20010904/DTD/svg10.dtd">
<svg version="1.0" xmlns="http://www.w3.org/2000/svg"
 width="512.000000pt" height="512.000000pt" viewBox="0 0 512.000000 512.000000"
 preserveAspectRatio="xMidYMid meet">
<metadata>
Created by potrace 1.14, written by Peter Selinger 2001-2017
</metadata>
<g transform="translate(0.000000,512.000000) scale(0.100000,-0.100000)"
fill="#000000" stroke="none">
<path d="M1545 5098 l-28 -24 0 -194 0 -193 28 -24 c34 -29 80 -25 106 9 23
30 22 399 -1 422 -29 29 -74 30 -105 4z"/>
<path d="M3460 5095 c-20 -22 -24 -35 -24 -104 -1 -71 2 -83 23 -105 14 -15
35 -26 51 -26 27 0 69 31 71 53 12 139 -1 190 -51 201 -45 9 -44 9 -70 -19z"/>
<path d="M242 4755 c-29 -36 -29 -174 -1 -204 11 -12 25 -21 32 -22 7 0 20 -2
31 -4 10 -2 29 7 42 20 21 22 24 33 24 108 0 70 -3 87 -20 105 -29 31 -82 30
-108 -3z"/>
<path d="M3180 4760 c-23 -23 -22 -10 -22 -195 0 -210 0 -211 20 -236 27 -32
78 -30 107 3 22 25 22 33 21 218 -1 189 -1 192 -25 211 -30 25 -76 24 -101 -1z"/>
<path d="M2510 4640 c-99 -21 -153 -74 -275 -268 -186 -295 -252 -399 -299
-470 -96 -147 -114 -203 -87 -274 16 -43 70 -88 113 -94 21 -4 38 -10 38 -13
0 -4 -61 -104 -136 -222 -76 -118 -145 -232 -155 -254 -53 -116 24 -235 152
-235 22 0 39 -2 39 -5 0 -3 -9 -18 -19 -33 -37 -52 -180 -281 -201 -321 -21
-42 -26 -104 -11 -143 11 -30 59 -77 91 -91 15 -6 144 -11 325 -11 l300 -1 0
-243 c0 -133 -3 -242 -7 -242 -4 0 -15 26 -25 58 -13 43 -17 94 -18 211 0 151
0 154 -24 169 -34 23 -47 23 -97 1 -174 -74 -283 -220 -328 -441 -4 -17 -12
-26 -24 -26 -9 0 -44 -2 -77 -5 -33 -3 -91 -9 -130 -12 -90 -8 -191 -21 -245
-30 -14 -2 -47 -7 -75 -10 -27 -3 -96 -14 -152 -23 l-103 -18 -1 26 c0 14 0
116 0 228 l-1 202 60 63 c33 34 69 72 79 84 11 12 73 79 139 148 65 70 123
134 129 143 19 33 16 62 -9 87 -30 30 -74 33 -102 7 -41 -39 -269 -285 -272
-293 -2 -5 -9 -9 -15 -9 -9 0 -12 68 -11 262 1 144 -2 273 -7 285 -5 13 -22
28 -37 34 -26 9 -29 14 -30 64 0 46 2 55 17 55 10 0 26 9 37 21 16 18 19 40
22 151 l3 130 42 45 c238 255 303 327 314 346 7 12 12 30 13 40 0 27 -45 67
-77 67 -33 0 -42 -8 -182 -158 -56 -62 -106 -112 -110 -112 -3 0 -6 138 -6
308 0 273 -2 310 -17 339 -65 118 -236 123 -303 9 l-25 -43 0 -766 c0 -422 -2
-767 -5 -767 -4 0 -68 67 -128 133 -15 17 -25 38 -23 46 5 16 10 48 22 136 3
28 8 58 10 69 2 10 6 42 10 72 5 48 3 56 -20 79 -50 49 -109 25 -126 -52 -8
-37 -22 -136 -23 -160 -1 -22 -11 -15 -64 42 -43 46 -58 55 -86 55 -53 0 -90
-57 -66 -102 6 -13 39 -52 73 -88 33 -36 106 -114 161 -175 55 -60 121 -132
147 -159 25 -28 62 -69 82 -91 l36 -39 -2 -420 -3 -421 -95 -28 c-226 -66
-435 -158 -548 -241 -47 -35 -64 -54 -72 -83 -8 -26 -10 -191 -8 -535 l3 -496
30 -44 c18 -25 49 -52 75 -65 l44 -23 2402 0 c2174 0 2405 2 2440 16 51 21 81
50 104 99 18 37 19 74 20 533 0 437 -2 497 -16 528 -45 94 -352 241 -705 338
-77 21 -84 24 -82 47 4 57 14 167 18 199 2 19 6 69 10 110 4 41 8 91 11 110 2
19 7 71 10 115 3 44 8 83 11 88 2 4 30 5 61 2 31 -3 77 -7 102 -10 25 -2 79
-7 120 -11 41 -3 82 -7 90 -9 63 -12 204 -15 234 -5 73 24 122 113 105 189 -8
34 -166 355 -190 387 -13 16 -1 23 27 18 38 -7 106 15 138 44 35 33 48 64 52
120 2 38 -13 73 -128 298 -71 141 -127 258 -124 261 3 4 20 8 37 10 77 8 133
74 134 159 0 44 -11 71 -80 208 -44 86 -88 162 -98 167 -10 6 -32 11 -48 11
-26 1 -34 8 -55 51 -23 44 -24 51 -10 65 34 39 30 62 -45 207 -39 77 -81 154
-92 170 -102 148 -296 165 -420 37 -25 -26 -111 -132 -192 -237 -80 -104 -151
-197 -158 -205 -7 -8 -60 -78 -119 -155 -114 -149 -132 -190 -115 -255 16 -63
46 -93 120 -120 l29 -10 -39 -48 c-21 -26 -52 -65 -68 -87 -29 -40 -51 -67
-70 -89 -18 -20 -152 -200 -166 -223 -8 -13 -17 -23 -21 -23 -5 0 -70 96 -103
153 -5 9 -43 69 -82 131 -89 140 -92 146 -63 146 12 0 40 10 62 22 76 43 103
150 57 225 -24 39 -374 594 -437 693 -55 87 -122 145 -190 164 -63 17 -69 18
-122 6z m1025 -1766 l44 -6 -61 -82 c-34 -44 -64 -83 -68 -86 -3 -3 -23 -29
-45 -57 -21 -29 -42 -53 -46 -53 -4 0 -33 43 -65 95 -31 53 -61 98 -66 101
-18 11 -6 20 30 22 58 4 124 41 146 83 l20 36 33 -23 c19 -13 54 -26 78 -30z
m25 -609 c41 -3 93 -7 115 -10 22 -2 65 -7 95 -9 30 -3 82 -8 115 -11 133 -12
146 -15 141 -33 -2 -9 -7 -53 -11 -97 -3 -44 -8 -96 -10 -115 -2 -19 -7 -64
-10 -100 -6 -71 -11 -121 -21 -218 l-6 -64 -45 7 c-25 3 -55 9 -66 12 -12 2
-38 6 -57 8 -126 13 -250 31 -256 38 -2 2 2 21 8 43 6 21 11 84 10 139 -1 123
-26 229 -82 339 -22 43 -40 80 -40 82 0 1 10 1 23 -1 12 -2 56 -7 97 -10z
m-801 -187 c20 -81 24 -225 9 -282 -25 -95 -33 -62 -33 139 -1 107 2 195 5
195 4 0 12 -24 19 -52z"/>
<path d="M4815 4605 c-23 -22 -25 -32 -25 -109 0 -79 2 -86 26 -105 34 -27 64
-27 95 0 22 19 24 28 24 111 0 82 -2 91 -24 109 -32 26 -67 24 -96 -6z"/>
<path d="M1844 4555 c-42 -18 -45 -24 -48 -110 -3 -81 17 -134 51 -136 73 -5
95 19 98 107 3 88 -5 115 -41 136 -25 14 -33 15 -60 3z"/>
</g>
</svg>
